<svg width="50" height="50" viewBox="0 0 50 50" fill="none" xmlns="http://www.w3.org/2000/svg">
<path d="M17.9667 40.8203H10.936V44.4146H17.9667V40.8203Z" stroke="white" stroke-width="1.6" stroke-miterlimit="10"/>
<path d="M12.1079 35.5695V16.8008H16.795V40.8209" stroke="white" stroke-width="1.6" stroke-miterlimit="10"/>
<path d="M12.1079 40.8196V36.7051" stroke="white" stroke-width="1.6" stroke-miterlimit="10"/>
<path d="M40.8302 16.7999H9.18604V14.4551H38.4854C39.7804 14.4551 40.8302 15.5048 40.8302 16.7999Z" stroke="white" stroke-width="1.6" stroke-miterlimit="10"/>
<path d="M9.1859 12.6953H5.59082V18.5542H9.1859V12.6953Z" stroke="white" stroke-width="1.6" stroke-miterlimit="10"/>
<path d="M30.3052 30.8592V28.5156H43.1673V30.8592" stroke="white" stroke-width="1.6" stroke-miterlimit="10"/>
<path d="M34.9497 30.8594H29.0635V33.2029H44.4088V30.8594H38.48" stroke="white" stroke-width="1.6" stroke-miterlimit="10"/>
<path d="M37.2982 30.8594H36.1265" stroke="white" stroke-width="1.6" stroke-miterlimit="10"/>
<path d="M36.7363 28.5173V16.8008" stroke="white" stroke-width="1.6" stroke-miterlimit="10"/>
<path d="M32.0229 28.5166L36.6801 23.8594L41.3281 28.5074" stroke="white" stroke-width="1.6" stroke-miterlimit="10"/>
<path d="M12.2075 19.0176L16.8298 23.6398" stroke="white" stroke-width="1.6" stroke-miterlimit="10"/>
<path d="M16.8297 27.6387L12.1426 32.3258" stroke="white" stroke-width="1.6" stroke-miterlimit="10"/>
<path d="M16.87 36.0527L12.103 40.8196" stroke="white" stroke-width="1.6" stroke-miterlimit="10"/>
<path d="M12.1079 14.455L14.0027 5.58594H14.9102L16.795 14.455" stroke="white" stroke-width="1.6" stroke-miterlimit="10"/>
<path d="M24.9976 9.60742L36.6759 14.4553" stroke="white" stroke-width="1.6" stroke-miterlimit="10"/>
<path d="M14.9102 5.58594H15.3105L23.8256 9.12071" stroke="white" stroke-width="1.6" stroke-miterlimit="10"/>
<path d="M19.1387 16.8008V20.3149H25.0082V16.8008" stroke="white" stroke-width="1.6" stroke-miterlimit="10"/>
</svg>
