<svg width="52" height="52" viewBox="0 0 52 52" fill="none" xmlns="http://www.w3.org/2000/svg">
<g clip-path="url(#clip0_467_110)">
<path d="M26.0007 4.33203C17.6157 4.33203 10.834 11.1137 10.834 19.4987C10.834 23.2687 11.9173 26.8004 13.889 29.9854C15.9473 33.322 18.6557 36.182 20.7357 39.5187C21.754 41.1437 22.4907 42.6604 23.2707 44.4154C23.834 45.607 24.289 47.6654 26.0007 47.6654C27.7123 47.6654 28.1673 45.607 28.709 44.4154C29.5107 42.6604 30.2257 41.1437 31.244 39.5187C33.324 36.2037 36.0323 33.3437 38.0907 29.9854C40.084 26.8004 41.1673 23.2687 41.1673 19.4987C41.1673 11.1137 34.3857 4.33203 26.0007 4.33203ZM26.0007 25.457C23.0107 25.457 20.584 23.0304 20.584 20.0404C20.584 17.0504 23.0107 14.6237 26.0007 14.6237C28.9907 14.6237 31.4173 17.0504 31.4173 20.0404C31.4173 23.0304 28.9907 25.457 26.0007 25.457Z" fill="#061B36"/>
<path d="M26.0007 4.33203C17.6157 4.33203 10.834 11.1137 10.834 19.4987C10.834 23.2687 11.9173 26.8004 13.889 29.9854C15.9473 33.322 18.6557 36.182 20.7357 39.5187C21.754 41.1437 22.4907 42.6604 23.2707 44.4154C23.834 45.607 24.289 47.6654 26.0007 47.6654C27.7123 47.6654 28.1673 45.607 28.709 44.4154C29.5107 42.6604 30.2257 41.1437 31.244 39.5187C33.324 36.2037 36.0323 33.3437 38.0907 29.9854C40.084 26.8004 41.1673 23.2687 41.1673 19.4987C41.1673 11.1137 34.3857 4.33203 26.0007 4.33203ZM26.0007 25.457C23.0107 25.457 20.584 23.0304 20.584 20.0404C20.584 17.0504 23.0107 14.6237 26.0007 14.6237C28.9907 14.6237 31.4173 17.0504 31.4173 20.0404C31.4173 23.0304 28.9907 25.457 26.0007 25.457Z" fill="url(#paint0_linear_467_110)"/>
</g>
<defs>
<linearGradient id="paint0_linear_467_110" x1="10.834" y1="25.9987" x2="41.1673" y2="25.9987" gradientUnits="userSpaceOnUse">
<stop stop-color="#BF584F"/>
<stop offset="1" stop-color="#F6736A"/>
</linearGradient>
<clipPath id="clip0_467_110">
<rect width="52" height="52" fill="white"/>
</clipPath>
</defs>
</svg>
