<svg width="40" height="40" viewBox="0 0 40 40" fill="none" xmlns="http://www.w3.org/2000/svg">
<path d="M20 3.33398V13.334" stroke="#00B050" stroke-linecap="round" stroke-linejoin="round"/>
<path d="M15.833 7.5L19.9997 11.6667L24.1663 7.5" stroke="#00B050" stroke-linecap="round" stroke-linejoin="round"/>
<path d="M10 28.334C12.7614 28.334 15 26.0954 15 23.334C15 20.5726 12.7614 18.334 10 18.334C7.23858 18.334 5 20.5726 5 23.334C5 26.0954 7.23858 28.334 10 28.334Z" stroke="#00B050" stroke-linecap="round" stroke-linejoin="round"/>
<path d="M30 28.334C32.7614 28.334 35 26.0954 35 23.334C35 20.5726 32.7614 18.334 30 18.334C27.2386 18.334 25 20.5726 25 23.334C25 26.0954 27.2386 28.334 30 28.334Z" stroke="#00B050" stroke-linecap="round" stroke-linejoin="round"/>
<path d="M5 36.6667C5 33 8 30 11.6667 30M35 36.6667C35 33 32 30 28.3333 30M15 36.6667C15 35.3406 15.5268 34.0688 16.4645 33.1311C17.4021 32.1935 18.6739 31.6667 20 31.6667C21.3261 31.6667 22.5979 32.1935 23.5355 33.1311C24.4732 34.0688 25 35.3406 25 36.6667" stroke="#00B050" stroke-linecap="round" stroke-linejoin="round"/>
<path d="M20 26.666C22.7614 26.666 25 24.4274 25 21.666C25 18.9046 22.7614 16.666 20 16.666C17.2386 16.666 15 18.9046 15 21.666C15 24.4274 17.2386 26.666 20 26.666Z" stroke="#00B050" stroke-linecap="round" stroke-linejoin="round"/>
</svg>
