<svg width="38" height="38" viewBox="0 0 38 38" fill="none" xmlns="http://www.w3.org/2000/svg">
<rect width="38" height="38" rx="19" fill="white" fill-opacity="0.04"/>
<rect x="0.5" y="0.5" width="37" height="37" rx="18.5" stroke="white" stroke-opacity="0.16"/>
<path d="M14.32 13.334C14.7621 13.334 15.186 13.5096 15.4986 13.8221C15.8111 14.1347 15.9867 14.5586 15.9867 15.0007C15.9867 15.4427 15.8111 15.8666 15.4986 16.1792C15.186 16.4917 14.7621 16.6673 14.32 16.6673C13.878 16.6673 13.4541 16.4917 13.1415 16.1792C12.829 15.8666 12.6534 15.4427 12.6534 15.0007C12.6534 14.5586 12.829 14.1347 13.1415 13.8221C13.4541 13.5096 13.878 13.334 14.32 13.334ZM13 17.0007H15.6667V25.0007H13V17.0007ZM17 17.0007H19.5334V18.094H19.5667C19.8383 17.6872 20.2125 17.3596 20.6516 17.1441C21.0906 16.9287 21.5789 16.8332 22.0667 16.8673C24.7334 16.8673 25.2267 18.6273 25.2267 20.914V25.0007H22.56V21.4673C22.56 20.6273 22.5467 19.534 21.38 19.534C20.2 19.534 20.02 20.454 20.02 21.4007V25.0007H17V17.0007Z" fill="white"/>
</svg>
