<svg width="38" height="38" viewBox="0 0 38 38" fill="none" xmlns="http://www.w3.org/2000/svg">
<rect width="38" height="38" rx="19" fill="white" fill-opacity="0.04"/>
<rect x="0.5" y="0.5" width="37" height="37" rx="18.5" stroke="white" stroke-opacity="0.16"/>
<g clip-path="url(#clip0_176_2952)">
<path d="M22.3334 12.334H15.6668C13.8258 12.334 12.3334 13.8264 12.3334 15.6673V22.334C12.3334 24.1749 13.8258 25.6673 15.6668 25.6673H22.3334C24.1744 25.6673 25.6668 24.1749 25.6668 22.334V15.6673C25.6668 13.8264 24.1744 12.334 22.3334 12.334Z" stroke="white" stroke-width="1.33333" stroke-linecap="round" stroke-linejoin="round"/>
<path d="M19.0001 21.6673C20.4729 21.6673 21.6668 20.4734 21.6668 19.0007C21.6668 17.5279 20.4729 16.334 19.0001 16.334C17.5273 16.334 16.3334 17.5279 16.3334 19.0007C16.3334 20.4734 17.5273 21.6673 19.0001 21.6673Z" stroke="white" stroke-width="1.33333" stroke-linecap="round" stroke-linejoin="round"/>
<path d="M22.6667 15.334H22.6734" stroke="white" stroke-width="1.33333" stroke-linecap="round" stroke-linejoin="round"/>
</g>
<defs>
<clipPath id="clip0_176_2952">
<rect width="16" height="16" fill="white" transform="translate(11.0001 11)"/>
</clipPath>
</defs>
</svg>
