<svg width="38" height="38" viewBox="0 0 38 38" fill="none" xmlns="http://www.w3.org/2000/svg">
<rect width="38" height="38" rx="19" fill="white" fill-opacity="0.04"/>
<rect x="0.5" y="0.5" width="37" height="37" rx="18.5" stroke="white" stroke-opacity="0.16"/>
<g clip-path="url(#clip0_176_2947)">
<path d="M26.3334 18.9995C26.3334 18.9995 26.3334 16.7328 26.0467 15.6528C25.9686 15.3594 25.8148 15.0917 25.6007 14.8764C25.3866 14.6611 25.1197 14.5058 24.8267 14.4261C23.7467 14.1328 19 14.1328 19 14.1328C19 14.1328 14.2533 14.1328 13.1733 14.4261C12.8804 14.5058 12.6135 14.6611 12.3994 14.8764C12.1853 15.0917 12.0315 15.3594 11.9533 15.6528C11.7556 16.7572 11.6596 17.8775 11.6667 18.9995C11.6596 20.1215 11.7556 21.2417 11.9533 22.3461C12.0315 22.6396 12.1853 22.9073 12.3994 23.1226C12.6135 23.3379 12.8804 23.4931 13.1733 23.5728C14.2533 23.8661 19 23.8661 19 23.8661C19 23.8661 23.7467 23.8661 24.8267 23.5728C25.1197 23.4931 25.3866 23.3379 25.6007 23.1226C25.8148 22.9073 25.9686 22.6396 26.0467 22.3461C26.3334 21.2661 26.3334 18.9995 26.3334 18.9995ZM17.5 21.3328V16.6661L21.5 18.9995L17.5 21.3328Z" fill="white"/>
</g>
<defs>
<clipPath id="clip0_176_2947">
<rect width="16" height="16" fill="white" transform="translate(11.0001 11)"/>
</clipPath>
</defs>
</svg>
